# This file uses centimeters as units for non-parametric coordinates.

mtllib coffin.mtl
g default
v 0.867092 0.000000 7.587649
v 3.036026 -0.000000 7.587649
v 0.867092 1.862619 7.587649
v 3.036026 1.862619 7.587649
v 0.867092 1.862619 -5.962885
v 3.036026 1.862618 -5.962885
v 0.867092 0.000000 -5.962885
v 3.036026 -0.000000 -5.962885
v 4.344862 1.862618 -1.446039
v -0.441744 1.862618 -1.446039
v -0.441744 0.000000 -1.446039
v 4.344862 0.000000 -1.446039
v 3.790239 1.862618 3.070806
v 0.112879 1.862618 3.070806
v 0.112879 0.000000 3.070806
v 3.790239 0.000000 3.070806
v 0.701518 1.862619 7.787650
v 3.201600 1.862619 7.787650
v 3.977758 1.862618 3.099454
v -0.074641 1.862618 3.099454
v 4.547707 1.862618 -1.464613
v -0.644589 1.862618 -1.464613
v 3.186299 1.862618 -6.162884
v 0.716818 1.862619 -6.162884
v 0.701518 2.024602 7.787650
v 3.201600 2.024602 7.787650
v 3.977758 2.024602 3.099454
v -0.074641 2.024602 3.099454
v 4.547707 2.024602 -1.464613
v -0.644589 2.024602 -1.464613
v 3.186299 2.024602 -6.162884
v 0.716818 2.024602 -6.162884
v 0.867092 2.158421 7.587649
v 3.036026 2.158421 7.587649
v 3.790238 2.158421 3.070805
v 0.112879 2.158421 3.070805
v 4.344862 2.158421 -1.446039
v -0.441744 2.158421 -1.446039
v 3.036026 2.158421 -5.962885
v 0.867092 2.158421 -5.962885
v 0.949879 2.158421 7.487649
v 2.953238 2.158421 7.487649
v 3.696479 2.158421 3.056480
v 0.206639 2.158421 3.056480
v 4.243439 2.158421 -1.436752
v -0.340322 2.158421 -1.436752
v 2.960889 2.158421 -5.862885
v 0.942229 2.158421 -5.862885
v 1.032667 2.289775 7.387649
v 2.870451 2.289775 7.387649
v 3.602719 2.289775 3.042156
v 0.300398 2.289775 3.042156
v 4.142016 2.289775 -1.427465
v -0.238899 2.289775 -1.427465
v 2.885752 2.289775 -5.762885
v 1.017366 2.289775 -5.762885
vt 0.467335 0.055993
vt 0.569192 0.056516
vt 0.632593 0.322572
vt 0.403813 0.322603
vt 0.372454 0.644340
vt 0.664110 0.644277
vt 0.563650 0.942012
vt 0.472806 0.941957
vt 0.428427 0.012090
vt 0.608229 0.012402
vt 0.598810 0.017676
vt 0.437513 0.018065
vt 0.692488 0.310887
vt 0.678760 0.312903
vt 0.343910 0.311050
vt 0.357560 0.313014
vt 0.728986 0.653882
vt 0.599805 0.989939
vt 0.588869 0.982464
vt 0.714108 0.651907
vt 0.436658 0.989577
vt 0.447743 0.983102
vt 0.307545 0.653834
vt 0.322408 0.651830
vt 0.591644 0.024977
vt 0.445150 0.025189
vt 0.667188 0.315229
vt 0.369267 0.315387
vt 0.582023 0.974140
vt 0.701992 0.650118
vt 0.454303 0.974706
vt 0.334593 0.649997
vt 0.582109 0.038524
vt 0.454130 0.038157
vt 0.650802 0.319307
vt 0.385513 0.319327
vt 0.574230 0.961033
vt 0.684332 0.647132
vt 0.462267 0.960787
vt 0.352254 0.647313
vt 0.577897 0.045047
vt 0.458987 0.045516
vt 0.644007 0.320719
vt 0.392483 0.320833
vt 0.570632 0.953991
vt 0.676628 0.646246
vt 0.465794 0.953719
vt 0.359914 0.646126
vt 0.151363 0.998006
vt 0.151365 0.830961
vt 0.294819 0.830962
vt 0.294818 0.998008
vt 0.145299 0.830961
vt 0.145301 0.998007
vt 0.001847 0.998008
vt 0.001845 0.830962
vt 0.736391 0.435947
vt 0.952442 0.435947
vt 0.908131 0.646537
vt 0.780702 0.646537
vt 0.703806 0.225357
vt 0.985028 0.225357
vt 0.780702 0.014767
vt 0.908131 0.014767
vt 0.145299 0.554899
vt 0.151365 0.554899
vt 0.294819 0.554899
vt 0.001845 0.554899
vt 0.151365 0.278838
vt 0.294819 0.278838
vt 0.151365 0.002776
vt 0.294819 0.002776
vt 0.001845 0.278837
vt 0.001845 0.002776
vt 0.145299 0.002776
vt 0.145299 0.278837
vn 0.000000 0.000000 1.000000
vn 0.000000 0.000000 1.000000
vn 0.000000 0.000000 1.000000
vn 0.000000 0.000000 1.000000
vn 0.000000 1.000000 -0.000000
vn 0.000000 1.000000 -0.000000
vn 0.000000 1.000000 -0.000000
vn 0.000000 1.000000 -0.000000
vn 0.000000 0.000000 -1.000000
vn 0.000000 0.000000 -1.000000
vn 0.000000 0.000000 -1.000000
vn 0.000000 0.000000 -1.000000
vn -0.000000 -1.000000 -0.000000
vn -0.000000 -1.000000 -0.000000
vn -0.000000 -1.000000 -0.000000
vn -0.000000 -1.000000 -0.000000
vn 0.986344 0.000000 0.164698
vn 0.986344 0.000000 0.164698
vn 0.986344 0.000000 0.164698
vn 0.986344 0.000000 0.164698
vn -0.986344 0.000000 0.164698
vn -0.986344 0.000000 0.164698
vn -0.986344 0.000000 0.164698
vn -0.986344 0.000000 0.164698
vn 0.000000 1.000000 0.000000
vn 0.000000 1.000000 0.000000
vn 0.000000 1.000000 0.000000
vn 0.000000 1.000000 0.000000
vn -0.960489 0.000000 -0.278319
vn -0.960489 0.000000 -0.278319
vn -0.960489 0.000000 -0.278319
vn -0.960489 0.000000 -0.278319
vn -0.000000 -1.000000 0.000000
vn -0.000000 -1.000000 0.000000
vn -0.000000 -1.000000 0.000000
vn -0.000000 -1.000000 0.000000
vn 0.960489 0.000000 -0.278319
vn 0.960489 0.000000 -0.278319
vn 0.960489 0.000000 -0.278319
vn 0.960489 0.000000 -0.278319
vn 0.000000 1.000000 0.000000
vn 0.000000 1.000000 0.000000
vn 0.000000 1.000000 0.000000
vn 0.000000 1.000000 0.000000
vn -0.992546 0.000000 0.121875
vn -0.992546 0.000000 0.121875
vn -0.992546 0.000000 0.121875
vn -0.992546 0.000000 0.121875
vn -0.000000 -1.000000 0.000000
vn -0.000000 -1.000000 0.000000
vn -0.000000 -1.000000 0.000000
vn -0.000000 -1.000000 0.000000
vn 0.992546 0.000000 0.121875
vn 0.992546 0.000000 0.121875
vn 0.992546 0.000000 0.121875
vn 0.992546 0.000000 0.121875
vn 0.000000 -1.000000 0.000000
vn 0.000000 -1.000000 0.000000
vn 0.000000 -1.000000 0.000000
vn 0.000000 -1.000000 0.000000
vn -0.000000 -1.000000 0.000000
vn -0.000000 -1.000000 0.000000
vn -0.000000 -1.000000 0.000000
vn -0.000000 -1.000000 0.000000
vn 0.000000 -1.000000 0.000000
vn 0.000000 -1.000000 0.000000
vn 0.000000 -1.000000 0.000000
vn 0.000000 -1.000000 0.000000
vn 0.000000 -1.000000 -0.000000
vn 0.000000 -1.000000 -0.000000
vn 0.000000 -1.000000 -0.000000
vn 0.000000 -1.000000 -0.000000
vn -0.000000 -1.000000 0.000001
vn -0.000000 -1.000000 0.000001
vn -0.000000 -1.000000 0.000001
vn -0.000000 -1.000000 0.000001
vn 0.000000 -1.000000 0.000000
vn 0.000000 -1.000000 0.000000
vn 0.000000 -1.000000 0.000000
vn 0.000000 -1.000000 0.000000
vn 0.000000 -1.000000 0.000000
vn 0.000000 -1.000000 0.000000
vn 0.000000 -1.000000 0.000000
vn 0.000000 -1.000000 0.000000
vn 0.000000 -1.000000 -0.000000
vn 0.000000 -1.000000 -0.000000
vn 0.000000 -1.000000 -0.000000
vn 0.000000 -1.000000 -0.000000
vn 0.000000 0.000000 1.000000
vn 0.000000 0.000000 1.000000
vn 0.000000 0.000000 1.000000
vn 0.000000 0.000000 1.000000
vn 0.986571 0.000000 0.163333
vn 0.986571 0.000000 0.163333
vn 0.986571 0.000000 0.163333
vn 0.986571 0.000000 0.163333
vn -0.986571 0.000000 0.163333
vn -0.986571 0.000000 0.163333
vn -0.986571 0.000000 0.163333
vn -0.986571 0.000000 0.163333
vn 0.960489 0.000000 -0.278319
vn 0.960489 0.000000 -0.278319
vn 0.960489 0.000000 -0.278319
vn 0.960489 0.000000 -0.278319
vn 0.000000 0.000000 -1.000000
vn 0.000000 0.000000 -1.000000
vn 0.000000 0.000000 -1.000000
vn 0.000000 0.000000 -1.000000
vn -0.960489 0.000000 -0.278319
vn -0.960489 0.000000 -0.278319
vn -0.960489 0.000000 -0.278319
vn -0.960489 0.000000 -0.278319
vn 0.992293 0.000000 0.123915
vn 0.992293 0.000000 0.123915
vn 0.992293 0.000000 0.123915
vn 0.992293 0.000000 0.123915
vn -0.992293 0.000000 0.123915
vn -0.992293 0.000000 0.123915
vn -0.992293 0.000000 0.123915
vn -0.992293 0.000000 0.123915
vn 0.000000 0.831119 0.556094
vn 0.000000 0.831119 0.556094
vn 0.000000 0.831119 0.556094
vn 0.000000 0.831119 0.556094
vn 0.562264 0.821658 0.093478
vn 0.562264 0.821658 0.093478
vn 0.562264 0.821658 0.093478
vn 0.562264 0.821658 0.093478
vn -0.562265 0.821657 0.093478
vn -0.562265 0.821657 0.093478
vn -0.562265 0.821657 0.093478
vn -0.562265 0.821657 0.093478
vn 0.534124 0.831118 -0.154772
vn 0.534124 0.831118 -0.154772
vn 0.534124 0.831118 -0.154772
vn 0.534124 0.831118 -0.154772
vn 0.000000 0.831118 -0.556097
vn 0.000000 0.831118 -0.556097
vn 0.000000 0.831118 -0.556097
vn 0.000000 0.831118 -0.556097
vn -0.534124 0.831118 -0.154772
vn -0.534124 0.831118 -0.154772
vn -0.534124 0.831118 -0.154772
vn -0.534124 0.831118 -0.154772
vn 0.562869 0.823602 0.069705
vn 0.562869 0.823602 0.069705
vn 0.562869 0.823602 0.069705
vn 0.562869 0.823602 0.069705
vn -0.562869 0.823602 0.069705
vn -0.562869 0.823602 0.069705
vn -0.562869 0.823602 0.069705
vn -0.562869 0.823602 0.069705
vn 0.000000 1.000000 0.000002
vn 0.000000 1.000000 0.000002
vn 0.000000 1.000000 0.000002
vn 0.000000 1.000000 0.000002
vn 0.000000 1.000000 -0.000000
vn 0.000000 1.000000 -0.000000
vn 0.000000 1.000000 -0.000000
vn 0.000000 1.000000 -0.000000
vn -0.000000 1.000000 -0.000000
vn -0.000000 1.000000 -0.000000
vn -0.000000 1.000000 -0.000000
vn -0.000000 1.000000 -0.000000
vn 0.000000 1.000000 0.000000
vn 0.000000 1.000000 0.000000
vn 0.000000 1.000000 0.000000
vn 0.000000 1.000000 0.000000
vn 0.000000 1.000000 0.000000
vn 0.000000 1.000000 0.000000
vn 0.000000 1.000000 0.000000
vn 0.000000 1.000000 0.000000
vn -0.000000 1.000000 -0.000000
vn -0.000000 1.000000 -0.000000
vn -0.000000 1.000000 -0.000000
vn -0.000000 1.000000 -0.000000
vn 0.000000 1.000000 -0.000000
vn 0.000000 1.000000 -0.000000
vn 0.000000 1.000000 -0.000000
vn 0.000000 1.000000 -0.000000
vn 0.000000 1.000000 0.000000
vn 0.000000 1.000000 0.000000
vn 0.000000 1.000000 0.000000
vn 0.000000 1.000000 0.000000
vn 0.000000 0.605739 0.795664
vn 0.000000 0.605739 0.795664
vn 0.000000 0.605738 0.795664
vn 0.000000 0.605738 0.795664
vn 0.794661 0.592171 0.133596
vn 0.794661 0.592171 0.133596
vn 0.794661 0.592171 0.133596
vn 0.794661 0.592171 0.133596
vn -0.794661 0.592170 0.133596
vn -0.794661 0.592170 0.133596
vn -0.794661 0.592170 0.133596
vn -0.794661 0.592171 0.133596
vn 0.764227 0.605738 -0.221448
vn 0.764227 0.605738 -0.221448
vn 0.764227 0.605738 -0.221448
vn 0.764227 0.605738 -0.221448
vn 0.000000 0.605740 -0.795663
vn 0.000000 0.605740 -0.795663
vn 0.000000 0.605740 -0.795663
vn 0.000000 0.605740 -0.795663
vn -0.764226 0.605739 -0.221448
vn -0.764226 0.605739 -0.221448
vn -0.764226 0.605739 -0.221448
vn -0.764226 0.605739 -0.221448
vn 0.798052 0.594777 0.096720
vn 0.798051 0.594777 0.096720
vn 0.798052 0.594777 0.096720
vn 0.798051 0.594777 0.096720
vn -0.798052 0.594776 0.096720
vn -0.798052 0.594776 0.096720
vn -0.798052 0.594776 0.096720
vn -0.798052 0.594776 0.096720
s off
g coffin
usemtl phong1SG
f 1/49/1 2/50/2 4/51/3 3/52/4
f 49/1/5 50/2/6 51/3/7 52/4/8
f 5/53/9 6/54/10 8/55/11 7/56/12
f 15/57/13 16/58/14 2/59/15 1/60/16
f 2/50/17 16/66/18 13/67/19 4/51/20
f 15/73/21 1/74/22 3/75/23 14/76/24
f 54/5/25 53/6/26 55/7/27 56/8/28
f 7/56/29 11/68/30 10/65/31 5/53/32
f 7/63/33 8/64/34 12/62/35 11/61/36
f 9/70/37 12/69/38 8/71/39 6/72/40
f 52/4/41 51/3/42 53/6/43 54/5/44
f 11/68/45 15/73/46 14/76/47 10/65/48
f 11/61/49 12/62/50 16/58/51 15/57/52
f 13/67/53 16/66/54 12/69/55 9/70/56
f 3/9/57 4/10/58 18/11/59 17/12/60
f 4/10/61 13/13/62 19/14/63 18/11/64
f 14/15/65 3/9/66 17/12/67 20/16/68
f 9/17/69 6/18/70 23/19/71 21/20/72
f 6/18/73 5/21/74 24/22/75 23/19/76
f 5/21/77 10/23/78 22/24/79 24/22/80
f 13/13/81 9/17/82 21/20/83 19/14/84
f 10/23/85 14/15/86 20/16/87 22/24/88
f 17/12/89 18/11/90 26/25/91 25/26/92
f 18/11/93 19/14/94 27/27/95 26/25/96
f 20/16/97 17/12/98 25/26/99 28/28/100
f 21/20/101 23/19/102 31/29/103 29/30/104
f 23/19/105 24/22/106 32/31/107 31/29/108
f 24/22/109 22/24/110 30/32/111 32/31/112
f 19/14/113 21/20/114 29/30/115 27/27/116
f 22/24/117 20/16/118 28/28/119 30/32/120
f 25/26/121 26/25/122 34/33/123 33/34/124
f 26/25/125 27/27/126 35/35/127 34/33/128
f 28/28/129 25/26/130 33/34/131 36/36/132
f 29/30/133 31/29/134 39/37/135 37/38/136
f 31/29/137 32/31/138 40/39/139 39/37/140
f 32/31/141 30/32/142 38/40/143 40/39/144
f 27/27/145 29/30/146 37/38/147 35/35/148
f 30/32/149 28/28/150 36/36/151 38/40/152
f 33/34/153 34/33/154 42/41/155 41/42/156
f 34/33/157 35/35/158 43/43/159 42/41/160
f 36/36/161 33/34/162 41/42/163 44/44/164
f 37/38/165 39/37/166 47/45/167 45/46/168
f 39/37/169 40/39/170 48/47/171 47/45/172
f 40/39/173 38/40/174 46/48/175 48/47/176
f 35/35/177 37/38/178 45/46/179 43/43/180
f 38/40/181 36/36/182 44/44/183 46/48/184
f 41/42/185 42/41/186 50/2/187 49/1/188
f 42/41/189 43/43/190 51/3/191 50/2/192
f 44/44/193 41/42/194 49/1/195 52/4/196
f 45/46/197 47/45/198 55/7/199 53/6/200
f 47/45/201 48/47/202 56/8/203 55/7/204
f 48/47/205 46/48/206 54/5/207 56/8/208
f 43/43/209 45/46/210 53/6/211 51/3/212
f 46/48/213 44/44/214 52/4/215 54/5/216
